<svg display="none" width="0" height="0" version="1.1" xmlns="http://www.w3.org/2000/svg" xmlns:xlink="http://www.w3.org/1999/xlink">
<!--
Linearicons Free v1.0.0 - https://linearicons.com/free
By Perxis - https://perxis.com
(c) 2014-2015 Perxis.com
License: https://linearicons.com/free/license
-->
<defs>
    <symbol id="lnr-eye" viewBox="0 0 1024 1024"><title>eye</title><path class="path1" d="M1017.429 520.474c-2.429-2.698-60.515-66.826-151.349-131.706-53.587-38.277-107.499-68.826-160.234-90.8-66.837-27.848-132.056-41.968-193.846-41.968s-127.010 14.12-193.846 41.97c-52.736 21.973-106.646 52.523-160.234 90.8-90.832 64.878-148.92 129.006-151.349 131.704-8.763 9.736-8.763 24.515 0 34.251 2.429 2.699 60.517 66.827 151.349 131.707 53.587 38.277 107.498 68.827 160.234 90.8 66.837 27.848 132.056 41.968 193.846 41.968s127.010-14.12 193.846-41.968c52.734-21.973 106.645-52.523 160.234-90.8 90.834-64.88 148.92-129.008 151.349-131.706 8.762-9.736 8.762-24.517 0-34.253zM643.789 329.643c46.458 39.074 73.011 95.923 73.011 156.757 0 112.926-91.874 204.8-204.8 204.8-112.928 0-204.8-91.874-204.8-204.8 0-60.835 26.554-117.685 73.014-156.757 42.107-13.744 86.602-22.443 131.786-22.443 45.186 0 89.682 8.699 131.789 22.443zM835.418 645.413c-78.488 55.925-198.309 122.587-323.418 122.587s-244.93-66.662-323.416-122.587c-59.24-42.21-104.574-84.89-127.458-107.813 22.888-22.928 68.222-65.606 127.458-107.813 27.13-19.331 59.2-39.942 94.72-58.643-17.766 35.224-27.304 74.52-27.304 115.256 0 141.16 114.842 256 256 256 141.16 0 256-114.84 256-256 0-40.734-9.538-80.032-27.301-115.256 35.517 18.701 67.589 39.312 94.718 58.643 59.238 42.21 104.573 84.89 127.456 107.813-22.888 22.928-68.222 65.606-127.456 107.813z"></path></symbol>
    <symbol id="lnr-paw" viewBox="0 0 1024 1024"><title>paw</title><path class="path1" d="M153.6 614.4c-57.421 0-102.4-67.712-102.4-154.155s44.979-154.155 102.4-154.155 102.4 67.712 102.4 154.155-44.979 154.155-102.4 154.155zM153.6 357.291c-24.168 0-51.2 44.030-51.2 102.955s27.032 102.954 51.2 102.954 51.2-44.030 51.2-102.955-27.032-102.954-51.2-102.954z"></path><path class="path2" d="M358.299 409.6c-57.365 0-102.299-67.469-102.299-153.6s44.934-153.6 102.299-153.6 102.299 67.469 102.299 153.6-44.934 153.6-102.299 153.6zM358.299 153.6c-24.122 0-51.099 43.792-51.099 102.4s26.978 102.4 51.099 102.4 51.099-43.792 51.099-102.4-26.978-102.4-51.099-102.4z"></path><path class="path3" d="M614.4 409.6c-57.421 0-102.4-67.469-102.4-153.6s44.979-153.6 102.4-153.6 102.4 67.469 102.4 153.6-44.979 153.6-102.4 153.6zM614.4 153.6c-24.168 0-51.2 43.792-51.2 102.4s27.032 102.4 51.2 102.4 51.2-43.792 51.2-102.4-27.032-102.4-51.2-102.4z"></path><path class="path4" d="M819.2 614.4c-57.421 0-102.4-67.712-102.4-154.155s44.979-154.155 102.4-154.155 102.4 67.712 102.4 154.155-44.979 154.155-102.4 154.155zM819.2 357.291c-24.168 0-51.2 44.030-51.2 102.955s27.032 102.954 51.2 102.954 51.2-44.030 51.2-102.955-27.032-102.954-51.2-102.954z"></path><path class="path5" d="M665.6 921.6c-44.434 0-74.482-15.032-100.99-28.293-24.573-12.291-45.792-22.907-78.21-22.907-32.298 0-53.52 10.606-78.093 22.888-26.555 13.27-56.654 28.312-101.107 28.312-28.446 0-55.258-15.501-73.557-42.53-32.104-47.421-32.619-119.362-1.413-197.378 56.152-140.381 148.794-220.893 254.17-220.893s198.018 80.512 254.168 220.893c31.206 78.018 30.693 149.958-1.413 197.378-18.298 27.029-45.109 42.53-73.555 42.53zM486.4 819.2c44.507 0 74.582 15.043 101.115 28.317 24.546 12.278 45.742 22.883 78.085 22.883 11.182 0 22.539-7.301 31.16-20.034 22.096-32.635 20.701-88.582-3.728-149.658-47.971-119.928-123.285-188.709-206.632-188.709-83.346 0-158.661 68.781-206.632 188.707-24.43 61.075-25.824 117.022-3.728 149.658 8.621 12.734 19.978 20.035 31.16 20.035 32.371 0 53.618-10.618 78.218-22.912 26.533-13.259 56.605-28.288 100.982-28.288z"></path></symbol>
    <symbol id="lnr-link" viewBox="0 0 1024 1024"><title>link</title><path class="path1" d="M546.917 665.512c-48.275 0-96.55-18.376-133.301-55.128-9.998-9.997-9.998-26.206 0-36.203s26.205-9.997 36.203 0c53.539 53.541 140.656 53.541 194.197 0l186.166-186.166c53.539-53.539 53.539-140.656 0-194.197-53.541-53.539-140.656-53.538-194.197 0l-157.082 157.083c-9.998 9.997-26.206 9.997-36.203 0-9.998-9.998-9.998-26.206 0-36.205l157.083-157.083c73.502-73.501 193.101-73.501 266.603 0s73.502 193.101 0 266.603l-186.168 186.168c-36.752 36.752-85.027 55.128-133.302 55.128z"></path><path class="path2" d="M239.717 972.712c-48.275 0-96.55-18.376-133.302-55.128-73.501-73.502-73.501-193.101 0-266.603l186.166-186.166c73.501-73.501 193.101-73.501 266.603 0 9.998 9.998 9.998 26.206 0 36.203-9.997 9.998-26.206 9.998-36.203 0-53.541-53.541-140.656-53.541-194.197 0l-186.165 186.166c-53.539 53.541-53.539 140.656 0 194.197s140.656 53.541 194.195 0l157.083-157.083c9.997-9.997 26.206-9.997 36.203 0 9.998 9.997 9.998 26.206 0 36.203l-157.083 157.083c-36.75 36.752-85.026 55.128-133.301 55.128z"></path></symbol>
    <symbol id="lnr-move" viewBox="0 0 1024 1024"><title>move</title><path class="path1" d="M939.701 519.499l-153.6-153.6c-9.997-9.998-26.206-9.998-36.203 0-9.998 9.997-9.998 26.206 0 36.203l109.899 109.898h-347.797v-347.797l109.899 109.898c4.998 5 11.549 7.499 18.101 7.499s13.102-2.499 18.101-7.499c9.998-9.997 9.998-26.206 0-36.203l-153.6-153.6c-9.997-9.998-26.206-9.998-36.203 0l-153.6 153.6c-9.998 9.997-9.998 26.206 0 36.203s26.206 9.998 36.203 0l109.899-109.898v347.797h-347.797l109.898-109.899c9.998-9.997 9.998-26.206 0-36.203-9.997-9.998-26.206-9.998-36.203 0l-153.6 153.6c-9.998 9.997-9.998 26.206 0 36.203l153.6 153.6c5 5 11.55 7.499 18.102 7.499s13.102-2.499 18.101-7.499c9.998-9.997 9.998-26.206 0-36.203l-109.898-109.898h347.797v347.797l-109.899-109.899c-9.997-9.997-26.206-9.997-36.203 0-9.998 9.997-9.998 26.206 0 36.203l153.6 153.6c5 5 11.55 7.499 18.102 7.499s13.102-2.499 18.101-7.499l153.6-153.6c9.998-9.997 9.998-26.206 0-36.203-9.997-9.997-26.206-9.997-36.203 0l-109.898 109.899v-347.797h347.797l-109.899 109.899c-9.998 9.997-9.998 26.206 0 36.203 5 4.998 11.55 7.498 18.102 7.498s13.102-2.499 18.101-7.499l153.6-153.6c9.998-9.997 9.998-26.205 0-36.202z"></path></symbol>
    <symbol id="lnr-star" viewBox="0 0 1024 1024"><title>star</title><path class="path1" d="M793.598 972.8c-4.205 0-8.422-1.034-12.258-3.126l-269.341-146.912-269.341 146.912c-8.598 4.691-19.118 4.061-27.098-1.613-7.981-5.677-12.022-15.41-10.413-25.069l49.034-294.206-195.483-195.485c-6.781-6.781-9.203-16.782-6.277-25.914s10.712-15.862 20.17-17.438l294.341-49.058 122.17-244.339c4.336-8.674 13.2-14.152 22.898-14.152s18.562 5.478 22.898 14.152l122.17 244.339 294.341 49.058c9.459 1.576 17.243 8.307 20.17 17.438s0.504 19.133-6.277 25.914l-195.483 195.485 49.034 294.206c1.61 9.659-2.434 19.392-10.413 25.069-4.419 3.144-9.621 4.739-14.84 4.739zM512 768c4.219 0 8.437 1.042 12.259 3.126l235.445 128.426-42.557-255.344c-1.36-8.155 1.302-16.464 7.15-22.309l169.626-169.626-258.131-43.022c-8.080-1.346-15.027-6.477-18.69-13.803l-105.102-210.205-105.102 210.205c-3.664 7.326-10.61 12.458-18.69 13.803l-258.131 43.022 169.624 169.626c5.846 5.845 8.509 14.155 7.15 22.309l-42.557 255.344 235.446-128.426c3.821-2.085 8.040-3.126 12.259-3.126z"></path></symbol>
    <symbol id="lnr-sync" viewBox="0 0 1024 1024"><title>sync</title><path class="path1" d="M1016.501 442.698c-9.997-9.997-26.206-9.997-36.203 0l-58.832 58.832c-2.63-105.486-44.947-204.27-119.835-279.16-77.362-77.365-180.222-119.97-289.63-119.97-152.28 0-291.122 83.699-362.342 218.435-6.606 12.499-1.83 27.989 10.669 34.597 12.498 6.606 27.989 1.83 34.597-10.669 62.33-117.914 183.826-191.163 317.077-191.163 194.014 0 352.501 154.966 358.224 347.619l-58.522-58.522c-9.997-9.997-26.206-9.997-36.203 0-9.998 9.998-9.998 26.206 0 36.205l102.4 102.4c4.998 4.998 11.549 7.498 18.101 7.498s13.102-2.499 18.101-7.499l102.4-102.4c9.998-9.997 9.998-26.205 0-36.203z"></path><path class="path2" d="M863.674 668.566c-12.502-6.603-27.99-1.832-34.597 10.669-62.328 117.915-183.826 191.165-317.077 191.165-194.016 0-352.502-154.966-358.224-347.621l58.522 58.522c5 5 11.55 7.499 18.102 7.499s13.102-2.499 18.102-7.499c9.997-9.997 9.997-26.206 0-36.203l-102.4-102.4c-9.998-9.997-26.206-9.997-36.205 0l-102.4 102.4c-9.997 9.997-9.997 26.206 0 36.203s26.206 9.997 36.205 0l58.83-58.832c2.63 105.488 44.946 204.272 119.835 279.162 77.365 77.363 180.224 119.97 289.632 119.97 152.28 0 291.12-83.699 362.342-218.435 6.608-12.501 1.829-27.99-10.669-34.598z"></path></symbol>
    <symbol id="lnr-alarm" viewBox="0 0 1024 1024"><title>alarm</title><path class="path1" d="M860.171 773.15c-58.576-44-92.171-111.194-92.171-184.35v-153.6c0-128.661-86.733-237.442-204.798-270.954l-0.002-36.246c0-42.347-34.451-76.8-76.8-76.8-42.347 0-76.8 34.453-76.8 76.8v36.245c-118.067 33.512-204.8 142.294-204.8 270.955v153.6c0 73.157-33.595 140.349-92.171 184.35-8.808 6.616-12.395 18.125-8.907 28.573 3.486 10.448 13.267 17.496 24.283 17.496h232.982c-1.709 8.384-2.587 16.955-2.587 25.581 0 70.579 57.421 128 128 128s128-57.421 128-128c0-8.626-0.878-17.197-2.584-25.581h232.981c11.016 0 20.795-7.046 24.283-17.496s-0.101-21.957-8.909-28.573zM460.8 128c0-14.115 11.485-25.6 25.6-25.6s25.6 11.485 25.6 25.6v26.774c-8.435-0.763-16.97-1.176-25.6-1.176s-17.166 0.413-25.6 1.176v-26.774zM563.2 844.8c0 42.347-34.453 76.8-76.8 76.8s-76.8-34.453-76.8-76.8c0-8.76 1.515-17.411 4.394-25.581h144.813c2.878 8.168 4.394 16.821 4.394 25.581zM191.571 768.019c13.075-15.826 24.437-33.051 33.744-51.27 20.362-39.858 30.685-82.906 30.685-127.949v-153.6c0-127.043 103.357-230.4 230.4-230.4s230.4 103.357 230.4 230.4v153.6c0 45.043 10.323 88.091 30.685 127.949 9.307 18.219 20.669 35.445 33.744 51.27h-589.658z"></path></symbol>
    <symbol id="lnr-heart" viewBox="0 0 1024 1024"><title>heart</title><path class="path1" d="M486.4 972.8c-4.283 0-8.566-1.074-12.434-3.222-4.808-2.67-119.088-66.624-235.122-171.376-68.643-61.97-123.467-125.363-162.944-188.418-50.365-80.443-75.901-160.715-75.901-238.584 0-148.218 120.582-268.8 268.8-268.8 50.173 0 103.462 18.805 150.051 52.952 27.251 19.973 50.442 44.043 67.549 69.606 17.107-25.565 40.299-49.634 67.55-69.606 46.589-34.147 99.878-52.952 150.050-52.952 148.218 0 268.8 120.582 268.8 268.8 0 77.869-25.538 158.141-75.901 238.584-39.478 63.054-94.301 126.446-162.944 188.418-116.034 104.754-230.314 168.706-235.122 171.376-3.867 2.149-8.15 3.222-12.434 3.222zM268.8 153.6c-119.986 0-217.6 97.614-217.6 217.6 0 155.624 120.302 297.077 221.224 388.338 90.131 81.504 181.44 138.658 213.976 158.042 32.536-19.384 123.845-76.538 213.976-158.042 100.922-91.261 221.224-232.714 221.224-388.338 0-119.986-97.616-217.6-217.6-217.6-87.187 0-171.856 71.725-193.314 136.096-3.485 10.453-13.267 17.504-24.286 17.504s-20.802-7.051-24.286-17.504c-21.456-64.371-106.125-136.096-193.314-136.096z"></path></symbol>
    <symbol id="lnr-trash" viewBox="0 0 1024 1024"><title>trash</title><path class="path1" d="M793.6 102.4h-179.2v-25.6c0-42.347-34.453-76.8-76.8-76.8h-102.4c-42.347 0-76.8 34.453-76.8 76.8v25.6h-179.2c-42.347 0-76.8 34.453-76.8 76.8v51.2c0 33.373 21.403 61.829 51.2 72.397v644.403c0 42.349 34.453 76.8 76.8 76.8h512c42.349 0 76.8-34.451 76.8-76.8v-644.403c29.797-10.568 51.2-39.024 51.2-72.397v-51.2c0-42.347-34.451-76.8-76.8-76.8zM409.6 76.8c0-14.115 11.485-25.6 25.6-25.6h102.4c14.115 0 25.6 11.485 25.6 25.6v25.6h-153.6v-25.6zM742.4 972.8h-512c-14.115 0-25.6-11.485-25.6-25.6v-640h563.2v640c0 14.115-11.485 25.6-25.6 25.6zM819.2 230.4c0 14.115-11.485 25.6-25.6 25.6h-614.4c-14.115 0-25.6-11.485-25.6-25.6v-51.2c0-14.115 11.485-25.6 25.6-25.6h614.4c14.115 0 25.6 11.485 25.6 25.6v51.2z"></path><path class="path2" d="M640 358.4c-14.139 0-25.6 11.462-25.6 25.6v512c0 14.139 11.461 25.6 25.6 25.6s25.6-11.461 25.6-25.6v-512c0-14.138-11.461-25.6-25.6-25.6z"></path><path class="path3" d="M486.4 358.4c-14.138 0-25.6 11.462-25.6 25.6v512c0 14.139 11.462 25.6 25.6 25.6s25.6-11.461 25.6-25.6v-512c0-14.138-11.462-25.6-25.6-25.6z"></path><path class="path4" d="M332.8 358.4c-14.138 0-25.6 11.462-25.6 25.6v512c0 14.139 11.462 25.6 25.6 25.6s25.6-11.461 25.6-25.6v-512c0-14.138-11.462-25.6-25.6-25.6z"></path></symbol>
    <symbol id="lnr-bubble" viewBox="0 0 1024 1024"><title>bubble</title><path class="path1" d="M25.6 972.8c-11.507 0-21.6-7.677-24.67-18.766s1.634-22.864 11.501-28.784c86.57-51.942 122.485-127.414 135.218-162.755-94.088-72.048-147.648-171.746-147.648-276.094 0-52.704 13.23-103.755 39.323-151.736 24.902-45.794 60.406-86.806 105.526-121.899 91.504-71.17 212.802-110.365 341.55-110.365s250.046 39.195 341.552 110.366c45.118 35.093 80.624 76.104 105.526 121.899 26.091 47.979 39.322 99.030 39.322 151.734 0 52.702-13.23 103.755-39.322 151.736-24.902 45.794-60.408 86.806-105.526 121.899-91.506 71.17-212.803 110.365-341.552 110.365-52.907 0-104.8-6.627-154.437-19.707-21.974 14.637-63.040 40.605-112.086 65.005-76.163 37.89-141.528 57.102-194.277 57.102zM486.4 153.6c-239.97 0-435.2 149.294-435.2 332.8 0 92.946 51.432 182.379 141.107 245.368 8.797 6.178 12.795 17.194 10.013 27.576-5.984 22.325-26.363 83.597-80.878 142.734 66.659-23.341 138.424-63.832 191.434-100.286 6.296-4.328 14.197-5.621 21.544-3.52 48.558 13.888 99.691 20.928 151.981 20.928 239.97 0 435.2-149.294 435.2-332.8s-195.23-332.8-435.2-332.8z"></path></symbol>
    <symbol id="lnr-envelope" viewBox="0 0 1024 1024"><title>envelope</title><path class="path1" d="M896 307.2h-819.2c-42.347 0-76.8 34.453-76.8 76.8v460.8c0 42.349 34.453 76.8 76.8 76.8h819.2c42.349 0 76.8-34.451 76.8-76.8v-460.8c0-42.347-34.451-76.8-76.8-76.8zM896 358.4c1.514 0 2.99 0.158 4.434 0.411l-385.632 257.090c-14.862 9.907-41.938 9.907-56.802 0l-385.634-257.090c1.443-0.253 2.92-0.411 4.434-0.411h819.2zM896 870.4h-819.2c-14.115 0-25.6-11.485-25.6-25.6v-438.566l378.4 252.267c15.925 10.618 36.363 15.925 56.8 15.925s40.877-5.307 56.802-15.925l378.398-252.267v438.566c0 14.115-11.485 25.6-25.6 25.6z"></path></symbol>
    <symbol id="lnr-checkmark-circle" viewBox="0 0 1024 1024"><title>checkmark-circle</title><path class="path1" d="M486.4 1024c-129.922 0-252.067-50.594-343.936-142.464s-142.464-214.014-142.464-343.936c0-129.923 50.595-252.067 142.464-343.936s214.013-142.464 343.936-142.464c129.922 0 252.067 50.595 343.936 142.464s142.464 214.014 142.464 343.936-50.594 252.067-142.464 343.936c-91.869 91.87-214.014 142.464-343.936 142.464zM486.4 102.4c-239.97 0-435.2 195.23-435.2 435.2s195.23 435.2 435.2 435.2 435.2-195.23 435.2-435.2-195.23-435.2-435.2-435.2z"></path><path class="path2" d="M384 742.4c-6.552 0-13.102-2.499-18.102-7.499l-153.6-153.6c-9.997-9.997-9.997-26.206 0-36.203 9.998-9.997 26.206-9.997 36.205 0l135.498 135.498 340.299-340.298c9.997-9.997 26.206-9.997 36.203 0 9.998 9.998 9.998 26.206 0 36.205l-358.4 358.4c-5 4.998-11.55 7.498-18.102 7.498z"></path></symbol>
</defs></svg>
